<svg xmlns="http://www.w3.org/2000/svg" viewBox="0 0 200 200" width="200" height="200" role="img" aria-label="JustInCase logo">
  <!-- Background with brand gradient -->
  <defs>
    <linearGradient id="bg" x1="0%" y1="0%" x2="100%" y2="100%">
      <stop offset="0%" style="stop-color:#1a0a2e"/>
      <stop offset="100%" style="stop-color:#2d0a1e"/>
    </linearGradient>
  </defs>
  <rect width="200" height="200" rx="32" fill="url(#bg)"/>

  <!-- Top shelf board -->
  <rect x="30" y="38" width="140" height="11" rx="5" fill="#6a1b9a"/>

  <!-- Cabinet body -->
  <rect x="38" y="49" width="124" height="112" rx="4" fill="#2d1b4e"/>

  <!-- Drawer 1 - Green -->
  <rect x="46" y="57" width="108" height="30" rx="7" fill="#22C55E"/>
  <rect x="84" y="70" width="32" height="7" rx="3.5" fill="#15803D"/>

  <!-- Drawer 2 - Amber -->
  <rect x="46" y="95" width="108" height="30" rx="7" fill="#F59E0B"/>
  <rect x="84" y="108" width="32" height="7" rx="3.5" fill="#B45309"/>

  <!-- Drawer 3 - Red -->
  <rect x="46" y="133" width="108" height="30" rx="7" fill="#EF4444"/>
  <rect x="84" y="146" width="32" height="7" rx="3.5" fill="#B91C1C"/>

  <!-- Bottom shelf board -->
  <rect x="30" y="161" width="140" height="11" rx="5" fill="#6a1b9a"/>

  <!-- Shelf legs -->
  <rect x="46" y="172" width="12" height="20" rx="4" fill="#6a1b9a"/>
  <rect x="142" y="172" width="12" height="20" rx="4" fill="#6a1b9a"/>
</svg>
